<?xml version="1.0" encoding="UTF-8" standalone="no"?><!-- Generator: Gravit.io --><svg xmlns="http://www.w3.org/2000/svg" xmlns:xlink="http://www.w3.org/1999/xlink" style="isolation:isolate" viewBox="0 0 1080 1080" width="1080pt" height="1080pt"><defs><clipPath id="_clipPath_RNhKnXy66iaDwyBJbjLkHIqjmiCszSG0"><rect width="1080" height="1080"/></clipPath></defs><g clip-path="url(#_clipPath_RNhKnXy66iaDwyBJbjLkHIqjmiCszSG0)"><g style="isolation:isolate"><path d=" M 180.75 704.5 L 560.75 484.5 L 940 704.75 L 560.25 923.5 L 180.75 704.5 Z " fill="rgb(235,235,235)"/><path d=" M 180.75 704.5 L 560.75 484.5 L 940 704.75 L 560.25 923.5 L 180.75 704.5 Z " fill="rgb(70,70,70)"/><linearGradient id="_lgradient_0" x1="0.39419838038229205" y1="1.3403128435388867" x2="0.6492727401626561" y2="0.07340552471899597" gradientTransform="matrix(380.281,0,0,519.375,180.094,184.875)" gradientUnits="userSpaceOnUse"><stop offset="1.6666666666666667%" stop-opacity="1" style="stop-color:rgb(179,179,179)"/><stop offset="97.91666666666666%" stop-opacity="1" style="stop-color:rgb(25,25,25)"/></linearGradient><path d=" M 180.094 404.188 L 560.25 184.875 L 560.375 484.875 L 180.75 704.25 L 180.094 404.188 Z " fill="url(#_lgradient_0)"/><path d=" M 940.031 403.969 L 560.125 184.75 L 560.375 484.875 L 939.844 704.531 L 940.031 403.969 Z " fill="rgb(164,126,153)"/><path d=" M 445.75 510.25 C 444.424 500.896 440.146 480.82 422.5 488.25 C 414.439 491.644 413.5 503.25 409 510.75 C 392.476 514.881 392.103 503.264 391.25 490.25" fill="none"/><linearGradient id="_lgradient_1" x1="0" y1="0.5" x2="0.9171939702544003" y2="-0.2499999663781678" gradientTransform="matrix(400.031,0,0,242.5,160.094,161.625)" gradientUnits="userSpaceOnUse"><stop offset="0%" stop-opacity="1" style="stop-color:rgb(102,102,102)"/><stop offset="100%" stop-opacity="1" style="stop-color:rgb(0,0,0)"/></linearGradient><path d=" M 160.094 392.594 L 560.125 161.625 L 560.125 184.75 L 180.094 404.125 L 160.094 392.594 Z " fill="url(#_lgradient_1)"/><path d=" M 960.094 392.625 L 560.375 161.5 L 560.25 184.875 C 623.505 221.061 687.745 258.481 751 294.667 C 814.255 330.853 877.057 367.876 940.313 404.062 L 960.094 392.625 Z " fill="rgb(147,113,137)"/><path d=" M 940 404 L 960.094 392.625 L 960 692.812 L 940.031 704.344 L 940 404 Z " fill="rgb(130,100,121)"/><path d=" M 180.062 404.219 L 160.031 392.687 L 160.5 693 L 181 704.5 L 180.062 404.219 Z " fill="rgb(87,87,87)"/><linearGradient id="_lgradient_2" x1="0.3341812964523454" y1="0.9422136158909433" x2="0.9618551249503569" y2="0.3724758031567812" gradientTransform="matrix(105.145,166.261,-183.283,115.91,834.055,538.227)" gradientUnits="userSpaceOnUse"><stop offset="0%" stop-opacity="1" style="stop-color:rgb(130,100,121)"/><stop offset="99.16666666666667%" stop-opacity="1" style="stop-color:rgb(191,137,154)"/></linearGradient><path d=" M 751.583 813.547 C 710.361 743.056 711.127 659.147 747.305 593.088 L 939.2 704.488 L 751.583 813.547 Z " fill="url(#_lgradient_2)"/><path d=" M 160.109 692.594 L 559.969 923.133 L 559.891 946.562 L 159.859 716.385 L 160.109 692.594 Z " fill="rgb(102,102,102)"/><path d=" M 959.859 692.875 L 560 923.414 L 560.078 946.844 L 960.109 716.667 L 959.859 692.875 Z " fill="rgb(83,83,83)"/><linearGradient id="_lgradient_3" x1="0.3341812964523454" y1="0.9422136158909433" x2="0.9618551249503569" y2="0.3724758031567812" gradientTransform="matrix(188.547,0,0,121.333,751.453,704.333)" gradientUnits="userSpaceOnUse"><stop offset="0%" stop-opacity="1" style="stop-color:rgb(130,100,121)"/><stop offset="99.16666666666667%" stop-opacity="1" style="stop-color:rgb(191,137,154)"/></linearGradient><path d=" M 751.453 813.094 L 940 704.333 L 940 717.333 L 752 825.667 L 751.453 813.094 Z " fill="url(#_lgradient_3)"/></g><g style="isolation:isolate"><defs><filter id="PftM5UYuwuQICeCHHu2rol1IKU9hfkqi" x="-200%" y="-200%" width="400%" height="400%" filterUnits="objectBoundingBox" color-interpolation-filters="sRGB"><feGaussianBlur xmlns="http://www.w3.org/2000/svg" stdDeviation="21.46804531419514" result="_out_LrZerT9y98zcyL2z6haN1t9HDGgnSzBK"/><feGaussianBlur xmlns="http://www.w3.org/2000/svg" stdDeviation="15.113503901193381" in="_out_LrZerT9y98zcyL2z6haN1t9HDGgnSzBK"/></filter></defs><g filter="url(#PftM5UYuwuQICeCHHu2rol1IKU9hfkqi)"><rect x="514.75" y="226" width="91.25" height="258.75" transform="matrix(1,0,0,1,0,0)" fill="rgb(206,37,105)"/></g><path d=" M 555.75 266 L 560.031 264.281 L 564.25 266 L 564.25 471 L 555.75 471 L 555.75 266 Z " fill="rgb(46,46,46)"/></g><g style="isolation:isolate"><linearGradient id="_lgradient_4" x1="1.2496450071451513" y1="0.5000000028506584" x2="-0.05907412761049713" y2="0.4913043506271685" gradientTransform="matrix(18.339,0,0,86.25,601.542,484.917)" gradientUnits="userSpaceOnUse"><stop offset="2.083333333333333%" stop-opacity="1" style="stop-color:rgb(162,162,162)"/><stop offset="97.5%" stop-opacity="1" style="stop-color:rgb(70,70,70)"/></linearGradient><path d=" M 601.542 484.917 L 619.848 484.917 L 619.88 565.682 L 611.044 571.167 L 601.552 566.139 L 601.542 484.917 Z " fill="url(#_lgradient_4)"/><linearGradient id="_lgradient_5" x1="1.2496450071451513" y1="0.5000000028506584" x2="-0.05907412761049713" y2="0.4913043506271685" gradientTransform="matrix(18.339,0,0,86.25,390.708,606.417)" gradientUnits="userSpaceOnUse"><stop offset="2.083333333333333%" stop-opacity="1" style="stop-color:rgb(162,162,162)"/><stop offset="97.5%" stop-opacity="1" style="stop-color:rgb(70,70,70)"/></linearGradient><path d=" M 390.708 606.417 L 409.015 606.417 L 409.047 687.182 L 400.211 692.667 L 390.719 687.639 L 390.708 606.417 Z " fill="url(#_lgradient_5)"/><path d=" M 399 601.5 L 619.91 473.793 L 519.352 415.734 L 298.306 543.354 L 399 601.5 Z " fill="rgb(236,236,236)"/><path d=" M 619.812 473.5 L 399.992 600.406 L 399.93 613.156 L 620.212 485.139 L 619.812 473.5 Z " fill="rgb(174,174,174)"/><linearGradient id="_lgradient_6" x1="1.2496450071451513" y1="0.5000000028506584" x2="-0.05907412761049713" y2="0.4913043506271685" gradientTransform="matrix(18.339,0,0,86.25,299.708,555.75)" gradientUnits="userSpaceOnUse"><stop offset="2.083333333333333%" stop-opacity="1" style="stop-color:rgb(162,162,162)"/><stop offset="97.5%" stop-opacity="1" style="stop-color:rgb(70,70,70)"/></linearGradient><path d=" M 299.708 555.75 L 318.015 555.75 L 318.047 636.516 L 309.211 642 L 299.719 636.973 L 299.708 555.75 Z " fill="url(#_lgradient_6)"/><path d=" M 299.935 542.704 L 400.016 600.527 L 399.852 613.172 L 299.848 555.492 L 299.935 542.704 Z " fill="rgb(206,206,206)"/></g><g style="isolation:isolate"><path d=" M 800.016 484.984 L 919.969 554.25 L 920.031 692.781 L 800.109 623.578 L 800.016 484.984 Z " fill="rgb(145,145,145)"/><path d=" M 801.044 622.589 L 921.083 691.932 L 871.385 720.667 L 751.451 651.299 L 801.044 622.589 Z " fill="rgb(170,170,170)"/><path d=" M 799.945 484.945 L 750.428 513.615 L 751.187 651.813 L 800.109 623.578 L 799.945 484.945 Z " fill="rgb(189,189,189)"/><path d=" M 800.544 589.339 L 920.583 658.682 L 870.885 687.417 L 750.951 618.049 L 800.544 589.339 Z " fill="rgb(244,244,244)"/><path d=" M 800.294 554.089 L 920.333 623.432 L 870.635 652.167 L 750.701 582.799 L 800.294 554.089 Z " fill="rgb(244,244,244)"/><path d=" M 920.195 554.445 L 870.678 583.115 L 871.437 721.313 L 920.359 693.078 L 920.195 554.445 Z " fill="rgb(255,255,255)"/><path d=" M 799.992 484.922 L 920.031 554.266 L 870.333 583 L 750.398 513.633 L 799.992 484.922 Z " fill="rgb(255,255,255)"/></g><g style="isolation:isolate"><defs><filter id="eGj0sNmljxRyxHpb1rcm984o84uAteiw" x="-200%" y="-200%" width="400%" height="400%" filterUnits="objectBoundingBox" color-interpolation-filters="sRGB"><feGaussianBlur xmlns="http://www.w3.org/2000/svg" stdDeviation="21.46804531419514" result="_out_7mpCJWJUgBkx8DnxW5LaQCAhElPAIBjn"/><feGaussianBlur xmlns="http://www.w3.org/2000/svg" stdDeviation="2.146804531419514" in="_out_7mpCJWJUgBkx8DnxW5LaQCAhElPAIBjn"/></filter></defs><g filter="url(#eGj0sNmljxRyxHpb1rcm984o84uAteiw)"><path d=" M 755 527.667 L 755 441.75 L 783.75 425.25 L 811.125 409.313 L 852.25 433 L 871.75 444.25 L 871.225 536.439 L 845.625 551.25 L 819.937 565.5 L 791.333 549.333 L 755 527.667 Z " fill="rgb(255,245,211)"/></g><path d=" M 800.922 429.172 L 857.07 461.594 L 857.099 526.437 L 800.966 494.045 L 800.922 429.172 Z " fill="rgb(137,184,191)"/><path d=" M 801 429 L 765.657 449.428 L 766.104 514.063 L 800.852 494.07 L 801 429 Z " fill="rgb(137,184,191)"/><path d=" M 767.648 512.859 Q 768.351 512.4 769.758 511.852 Q 770.526 511.047 771.023 510.773 Q 771.52 510.5 772.523 510.328 L 773.859 508.195 Q 774.913 506.86 775.594 506.297 Q 776.308 505.705 777.797 504.984 Q 779.684 504.533 780.68 504.164 C 782.194 503.603 783.342 502.711 784.828 502.055 C 786.686 501.234 788.609 501.586 790.219 500.109 C 791.243 499.17 791.547 497.717 792.539 496.734 C 794.231 495.06 796.098 494.396 798.258 494.133 Q 799.194 494.019 800.93 494.172 Q 804.069 495.179 805.758 495.773 C 807.339 496.329 808.359 495.239 809.93 496.125 C 810.681 496.548 811.433 496.981 812.246 497.448 Q 828.457 506.764 857.271 526.583 L 822.271 546.917 L 765.984 514.242 Q 767.023 513.268 767.648 512.859 Z " fill="rgb(57,57,57)"/><path d=" M 800.805 433.922 L 857.146 466.333 L 822.146 486.667 L 765.909 454.232 L 800.805 433.922 Z " fill="rgb(137,184,191)"/><path d=" M 793.332 491.345 C 794.678 488.646 797.814 489.86 800.315 489.364 C 801.792 489.071 800.108 486.159 800.692 484.552 C 802.186 480.444 803.93 484.049 805.693 484.174 C 807.014 484.268 806.377 480.06 807.958 478.607 Q 813.479 473.535 816.733 489.175 Q 818.587 493.241 819.187 495.592 Q 821.093 503.062 816.733 516.917 L 793.332 504.744 Q 791.168 495.687 793.332 491.345 Z " fill="rgb(106,88,65)"/><path d=" M 820.885 512.01 C 820.267 510.769 823.34 511.774 823.055 508.991 C 822.917 507.637 818.699 507.791 817.488 505.688 C 816.158 503.378 818.439 498.58 817.646 498.422 C 816.169 498.129 817.853 495.217 817.269 493.61 C 815.776 489.503 814.031 493.108 812.268 493.233 C 810.947 493.326 805.74 487.234 802.485 490.119 Q 800.188 492.154 801.228 498.234 Q 800.863 503.248 798.774 504.65 Q 797.504 505.503 794.653 505.499 Q 800.364 510.152 803.806 512.105 Q 808.149 514.567 816.922 517.294 Q 823.05 516.352 820.885 512.01 Z " fill="rgb(91,74,52)"/><path d=" M 836.675 518.631 C 835.401 516.075 832.43 517.224 830.061 516.754 C 828.662 516.477 830.257 513.719 829.704 512.196 C 828.289 508.306 826.637 511.721 824.967 511.839 C 823.716 511.928 824.32 507.942 822.822 506.566 Q 817.593 501.762 814.511 516.576 Q 810.111 520.966 811.732 522.767 Q 814.28 525.598 818.809 528.051 L 836.675 531.322 Q 838.725 522.743 836.675 518.631 Z " fill="rgb(106,88,65)"/><path d=" M 811.732 525.504 C 810.786 524.166 809.624 521.226 810.416 521.069 C 811.894 520.776 810.209 517.864 810.794 516.256 C 812.287 512.149 814.031 515.754 815.795 515.879 C 817.116 515.973 822.322 509.881 825.578 512.765 Q 827.875 514.801 826.835 520.88 Q 830.155 524.8 829.288 527.296 Q 828.691 529.017 825.698 530.599 L 819.187 528.051 Q 813.477 527.971 811.732 525.504 Z " fill="rgb(91,74,52)"/><defs><linearGradient id="_lgradient_7" x1="0.5" y1="1" x2="0.49999999999999983" y2="0"><stop offset="2.083333333333333%" style="stop-color:#000000"/><stop offset="98.33333333333333%" style="stop-color:#8E8E8E"/></linearGradient></defs><path d="M 853.28 489.63 L 853.98 489.63 C 854.753 489.63 855.38 490.257 855.38 491.03 L 855.38 513.35 C 855.38 514.123 854.753 514.75 853.98 514.75 L 853.28 514.75 C 852.507 514.75 851.88 514.123 851.88 513.35 L 851.88 491.03 C 851.88 490.257 852.507 489.63 853.28 489.63 Z" style="stroke:none;fill:url(#_lgradient_7);stroke-miterlimit:10;"/><linearGradient id="_lgradient_8" x1="0.5329268441824802" y1="0.8796661473109547" x2="0.5328373060011385" y2="0.11698208993107972" gradientTransform="matrix(35.343,0,0,85.18,821.915,461.695)" gradientUnits="userSpaceOnUse"><stop offset="0%" stop-opacity="0" style="stop-color:rgb(137,184,191)"/><stop offset="98.75%" stop-opacity="1" style="stop-color:rgb(87,156,176)"/></linearGradient><path d=" M 857.258 461.695 L 821.915 482.123 L 822.187 546.875 L 857.109 526.766 L 857.258 461.695 Z " fill="url(#_lgradient_8)"/><linearGradient id="_lgradient_9" x1="0.54821196392796" y1="0.8592771042082042" x2="0.5482119639279599" y2="0.18329314816723474" gradientTransform="matrix(56.177,0,0,97.266,766.078,449.359)" gradientUnits="userSpaceOnUse"><stop offset="0%" stop-opacity="0" style="stop-color:rgb(137,184,191)"/><stop offset="97.91666666666666%" stop-opacity="1" style="stop-color:rgb(82,153,174)"/></linearGradient><path d=" M 766.078 449.359 L 822.226 481.781 L 822.255 546.625 L 766.122 514.232 L 766.078 449.359 Z " fill="url(#_lgradient_9)"/><defs><filter id="6m9tAkqVKMSFP4tZ4MmErCqgybjZePuU" x="-200%" y="-200%" width="400%" height="400%" filterUnits="objectBoundingBox" color-interpolation-filters="sRGB"><feGaussianBlur xmlns="http://www.w3.org/2000/svg" stdDeviation="7.084454953684396"/></filter></defs><g filter="url(#6m9tAkqVKMSFP4tZ4MmErCqgybjZePuU)"><path d=" M 781.885 427.207 L 846.562 464.625 L 831.149 474.826 L 766.893 436.022 L 781.885 427.207 Z " fill="rgb(251,217,178)"/></g><linearGradient id="_lgradient_10" x1="0.9634270425959935" y1="0.5520357782556218" x2="-0.008096025568035348" y2="0.49956272455246564" gradientTransform="matrix(62.727,36.478,-4.343,7.468,777.298,429.067)" gradientUnits="userSpaceOnUse"><stop offset="0%" stop-opacity="1" style="stop-color:rgb(255,255,255)"/><stop offset="99.16666666666667%" stop-opacity="1" style="stop-color:rgb(221,221,221)"/></linearGradient><path d=" M 783.24 432.522 L 838.109 464.43 C 839.166 465.045 839.178 466.064 838.135 466.703 L 833.546 469.514 C 832.503 470.153 830.798 470.173 829.74 469.557 L 774.871 437.649 C 773.814 437.034 773.802 436.016 774.845 435.377 L 779.434 432.566 C 780.477 431.927 782.182 431.907 783.24 432.522 Z " fill="url(#_lgradient_10)"/></g><g style="isolation:isolate"><linearGradient id="_lgradient_11" x1="0.47068822746314765" y1="0.8457317073170731" x2="0.4797929821561641" y2="0.10121951219512226" gradientTransform="matrix(51.568,0,0,116.667,647.364,298)" gradientUnits="userSpaceOnUse"><stop offset="1.25%" stop-opacity="1" style="stop-color:rgb(104,60,83)"/><stop offset="97.91666666666666%" stop-opacity="1" style="stop-color:rgb(138,69,107)"/></linearGradient><path d=" M 647.364 298 L 698.647 327.464 L 698.932 414.667 L 647.648 385.203 L 647.364 298 Z " fill="url(#_lgradient_11)"/><linearGradient id="_lgradient_12" x1="0.47068822746314765" y1="0.8457317073170731" x2="0.4797929821561641" y2="0.10121951219512226" gradientTransform="matrix(24.344,0,0,55.076,705.015,335.424)" gradientUnits="userSpaceOnUse"><stop offset="1.25%" stop-opacity="1" style="stop-color:rgb(104,60,83)"/><stop offset="97.91666666666666%" stop-opacity="1" style="stop-color:rgb(138,69,107)"/></linearGradient><path d=" M 705.015 335.424 L 729.225 349.333 L 729.359 390.5 L 705.149 376.591 L 705.015 335.424 Z " fill="url(#_lgradient_12)"/><linearGradient id="_lgradient_13" x1="0.47068822746314765" y1="0.8457317073170731" x2="0.4797929821561641" y2="0.10121951219512226" gradientTransform="matrix(32.079,0,0,72.576,705.515,385.924)" gradientUnits="userSpaceOnUse"><stop offset="1.25%" stop-opacity="1" style="stop-color:rgb(104,60,83)"/><stop offset="97.91666666666666%" stop-opacity="1" style="stop-color:rgb(138,69,107)"/></linearGradient><path d=" M 705.515 385.924 L 737.418 404.253 L 737.594 458.5 L 705.692 440.171 L 705.515 385.924 Z " fill="url(#_lgradient_13)"/></g><g style="isolation:isolate"><path d=" M 396.474 533.622 L 500.082 472.723 C 501.347 471.979 503.399 471.985 504.66 472.736 L 545.41 497.006 C 546.672 497.758 546.668 498.971 545.403 499.715 L 441.795 560.614 C 440.529 561.358 438.478 561.352 437.217 560.601 L 396.466 536.331 C 395.205 535.58 395.209 534.366 396.474 533.622 Z " fill="rgb(167,122,141)"/><linearGradient id="_lgradient_14" x1="0.5329268441824802" y1="0.8796661473109547" x2="0.5328373060011385" y2="0.11698208993107972" gradientTransform="matrix(27.193,0,0,75.824,548.824,393.125)" gradientUnits="userSpaceOnUse"><stop offset="0%" stop-opacity="1" style="stop-color:rgb(81,81,81)"/><stop offset="97.5%" stop-opacity="1" style="stop-color:rgb(15,15,15)"/></linearGradient><path d=" M 576 393.125 L 548.824 408.949 L 548.824 468.949 L 576.018 453.357 L 576 393.125 Z " fill="url(#_lgradient_14)"/><path d=" M 519.805 360.922 L 576.146 393.333 L 548.812 408.938 L 492.576 376.503 L 519.805 360.922 Z " fill="rgb(15,15,15)"/><path d=" M 492.75 426.125 C 484.239 427.167 473.875 429.774 473.875 439.875 C 475.768 448.393 488.497 447.623 493.75 451.375 C 501.59 456.975 492.025 467.749 490.625 473 C 488.373 481.446 487.731 492.25 498.875 492.25" fill="none" vector-effect="non-scaling-stroke" stroke-width="1" stroke="rgb(33,33,33)" stroke-linejoin="miter" stroke-linecap="square" stroke-miterlimit="3"/><path d=" M 440.444 512.304 C 441.049 507.298 430.794 511.15 428.25 508.688 C 426.468 506.962 430.602 498.623 426.563 497.625 C 417.839 497.42 419.652 501.863 414.75 506.062 C 407.434 512.331 385.078 484.415 382.406 495.234" fill="none" vector-effect="non-scaling-stroke" stroke-width="1" stroke="rgb(33,33,33)" stroke-linejoin="miter" stroke-linecap="square" stroke-miterlimit="3"/><linearGradient id="_lgradient_15" x1="0.54821196392796" y1="0.8592771042082042" x2="0.5482119639279599" y2="0.18329314816723474" gradientTransform="matrix(56.151,0,0,92.375,492.685,376.531)" gradientUnits="userSpaceOnUse"><stop offset="0%" stop-opacity="1" style="stop-color:rgb(79,79,79)"/><stop offset="97.5%" stop-opacity="1" style="stop-color:rgb(0,0,0)"/></linearGradient><path d=" M 492.688 376.531 L 548.835 408.953 L 548.818 468.906 L 492.685 436.514 L 492.688 376.531 Z " fill="url(#_lgradient_15)"/><linearGradient id="_lgradient_16" x1="-0.0780467078994973" y1="1.5144665088329763" x2="0.4032563496693589" y2="-0.6256638831235315" gradientTransform="matrix(100.147,-57.001,22.756,39.981,377.353,432.501)" gradientUnits="userSpaceOnUse"><stop offset="0%" stop-opacity="1" style="stop-color:rgb(53,53,53)"/><stop offset="100%" stop-opacity="1" style="stop-color:rgb(0,0,0)"/></linearGradient><path d=" M 401.657 418.668 L 475.994 376.357 C 476.825 375.884 477.499 376.276 477.499 377.232 L 477.459 426.725 C 477.458 427.681 476.783 428.842 475.952 429.315 L 401.615 471.625 C 400.784 472.098 400.109 471.706 400.11 470.75 L 400.15 421.257 C 400.151 420.301 400.826 419.141 401.657 418.668 Z " fill="url(#_lgradient_16)"/><linearGradient id="_lgradient_17" x1="-0.0780467078994973" y1="1.5144665088329763" x2="0.4032563496693589" y2="-0.6256638831235315" gradientTransform="matrix(88.377,-50.302,10.972,19.277,402.151,533.275)" gradientUnits="userSpaceOnUse"><stop offset="0%" stop-opacity="1" style="stop-color:rgb(53,53,53)"/><stop offset="100%" stop-opacity="1" style="stop-color:rgb(0,0,0)"/></linearGradient><path d=" M 403.657 532.418 L 477.994 490.107 C 478.825 489.634 480.168 489.645 480.992 490.131 L 500.008 501.369 C 500.832 501.855 500.825 502.634 499.994 503.107 L 425.657 545.418 C 424.826 545.891 423.483 545.88 422.66 545.393 L 403.643 534.156 C 402.82 533.67 402.826 532.891 403.657 532.418 Z " fill="url(#_lgradient_17)"/><linearGradient id="_lgradient_18" x1="0" y1="0.5" x2="1" y2="0.5" gradientTransform="matrix(100.147,-57.001,22.756,39.981,296.353,478.001)" gradientUnits="userSpaceOnUse"><stop offset="0%" stop-opacity="1" style="stop-color:rgb(53,53,53)"/><stop offset="100%" stop-opacity="1" style="stop-color:rgb(0,0,0)"/></linearGradient><path d=" M 320.657 464.168 L 394.994 421.857 C 395.825 421.384 396.499 421.776 396.499 422.732 L 396.459 472.225 C 396.458 473.181 395.783 474.342 394.952 474.815 L 320.615 517.125 C 319.784 517.598 319.109 517.206 319.11 516.25 L 319.15 466.757 C 319.151 465.801 319.826 464.641 320.657 464.168 Z " fill="url(#_lgradient_18)"/><linearGradient id="_lgradient_19" x1="0" y1="0.5" x2="0.8088989769838266" y2="1.320081743251258" gradientTransform="matrix(16.896,6.207,-3.621,9.856,501.862,487.719)" gradientUnits="userSpaceOnUse"><stop offset="0%" stop-opacity="1" style="stop-color:rgb(54,54,54)"/><stop offset="100%" stop-opacity="1" style="stop-color:rgb(0,0,0)"/></linearGradient><path d=" M 500.052 492.647 C 501.051 489.927 505.648 489.109 510.31 490.822 C 514.973 492.535 517.947 496.134 516.948 498.853 C 515.949 501.573 511.352 502.391 506.69 500.678 C 502.027 498.965 499.053 495.366 500.052 492.647 Z " fill="url(#_lgradient_19)"/></g><rect x="381.422" y="494.625" width="3.516" height="2.813" transform="matrix(-0.868,0.497,-0.497,-0.868,962.288,735.837)" fill="rgb(235,235,235)"/></g></svg>